# xmcd
#
# Track frame offsets:
#	150
#	11873
#	24623
#	47143
#	67362
#	84132
#	103976
#	121755
#	138876
#	150592
#
# Disc length: 2358 seconds
#
# Revision: 0
# Processed by: cddbd v1.4PL0 Copyright (c) Steve Scherf et al.
# Submitted via: dBpowerAMP V4.0
#
DISCID=8109340a
DTITLE=Sandra Mihanovich - Puerto Pollensa
DYEAR=1900
DGENRE=blues
TTITLE0=Cuatro Estrofas
TTITLE1=Me Contaron Que Bajo El Asfalto
TTITLE2=Es La Vida Que Me Alcanza
TTITLE3=Y Hoy Te Vi
TTITLE4=Igual a Los Demas
TTITLE5=Puerto Pollensa
TTITLE6=Vos, Yo, Uno Mas Uno
TTITLE7=Simple
TTITLE8=Conversar Con Un Amigo
TTITLE9=Mil Veces Lloro
EXTD=
EXTT0=
EXTT1=
EXTT2=
EXTT3=
EXTT4=
EXTT5=
EXTT6=
EXTT7=
EXTT8=
EXTT9=
PLAYORDER=
